<svg width="189" height="39" viewBox="0 0 189 39" fill="none" xmlns="http://www.w3.org/2000/svg">
<path d="M62.5568 15.875H57.5795C57.4886 15.2311 57.303 14.6591 57.0227 14.1591C56.7424 13.6515 56.3826 13.2197 55.9432 12.8636C55.5038 12.5076 54.9962 12.2348 54.4205 12.0455C53.8523 11.8561 53.2348 11.7614 52.5682 11.7614C51.3636 11.7614 50.3144 12.0606 49.4205 12.6591C48.5265 13.25 47.8333 14.1136 47.3409 15.25C46.8485 16.3788 46.6023 17.75 46.6023 19.3636C46.6023 21.0227 46.8485 22.4167 47.3409 23.5455C47.8409 24.6742 48.5379 25.5265 49.4318 26.1023C50.3258 26.678 51.3598 26.9659 52.5341 26.9659C53.1932 26.9659 53.803 26.8788 54.3636 26.7045C54.9318 26.5303 55.4356 26.2765 55.875 25.9432C56.3144 25.6023 56.678 25.1894 56.9659 24.7045C57.2614 24.2197 57.4659 23.6667 57.5795 23.0455L62.5568 23.0682C62.428 24.1364 62.1061 25.1667 61.5909 26.1591C61.0833 27.1439 60.3977 28.0265 59.5341 28.8068C58.678 29.5795 57.6553 30.1932 56.4659 30.6477C55.2841 31.0947 53.947 31.3182 52.4545 31.3182C50.3788 31.3182 48.5227 30.8485 46.8864 29.9091C45.2576 28.9697 43.9697 27.6098 43.0227 25.8295C42.0833 24.0492 41.6136 21.8939 41.6136 19.3636C41.6136 16.8258 42.0909 14.6667 43.0455 12.8864C44 11.1061 45.2955 9.75 46.9318 8.81818C48.5682 7.87879 50.4091 7.40909 52.4545 7.40909C53.803 7.40909 55.053 7.59848 56.2045 7.97727C57.3636 8.35606 58.3902 8.90909 59.2841 9.63636C60.178 10.3561 60.9053 11.2386 61.4659 12.2841C62.0341 13.3295 62.3977 14.5265 62.5568 15.875ZM73.8807 31.3409C72.1155 31.3409 70.589 30.9659 69.3011 30.2159C68.0208 29.4583 67.0322 28.4053 66.3352 27.0568C65.6383 25.7008 65.2898 24.1288 65.2898 22.3409C65.2898 20.5379 65.6383 18.9621 66.3352 17.6136C67.0322 16.2576 68.0208 15.2045 69.3011 14.4545C70.589 13.697 72.1155 13.3182 73.8807 13.3182C75.6458 13.3182 77.1686 13.697 78.4489 14.4545C79.7367 15.2045 80.7292 16.2576 81.4261 17.6136C82.1231 18.9621 82.4716 20.5379 82.4716 22.3409C82.4716 24.1288 82.1231 25.7008 81.4261 27.0568C80.7292 28.4053 79.7367 29.4583 78.4489 30.2159C77.1686 30.9659 75.6458 31.3409 73.8807 31.3409ZM73.9034 27.5909C74.7064 27.5909 75.3769 27.3636 75.9148 26.9091C76.4527 26.447 76.858 25.8182 77.1307 25.0227C77.411 24.2273 77.5511 23.322 77.5511 22.3068C77.5511 21.2917 77.411 20.3864 77.1307 19.5909C76.858 18.7955 76.4527 18.1667 75.9148 17.7045C75.3769 17.2424 74.7064 17.0114 73.9034 17.0114C73.0928 17.0114 72.411 17.2424 71.858 17.7045C71.3125 18.1667 70.8996 18.7955 70.6193 19.5909C70.3466 20.3864 70.2102 21.2917 70.2102 22.3068C70.2102 23.322 70.3466 24.2273 70.6193 25.0227C70.8996 25.8182 71.3125 26.447 71.858 26.9091C72.411 27.3636 73.0928 27.5909 73.9034 27.5909ZM85.6193 31V13.5455H90.233V16.625H90.4375C90.8011 15.6023 91.4072 14.7955 92.2557 14.2045C93.1042 13.6136 94.1193 13.3182 95.3011 13.3182C96.4981 13.3182 97.517 13.6174 98.358 14.2159C99.1989 14.8068 99.7595 15.6098 100.04 16.625H100.222C100.578 15.625 101.222 14.8258 102.153 14.2273C103.093 13.6212 104.203 13.3182 105.483 13.3182C107.112 13.3182 108.434 13.8371 109.449 14.875C110.472 15.9053 110.983 17.3674 110.983 19.2614V31H106.153V20.2159C106.153 19.2462 105.896 18.5189 105.381 18.0341C104.866 17.5492 104.222 17.3068 103.449 17.3068C102.57 17.3068 101.884 17.5871 101.392 18.1477C100.9 18.7008 100.653 19.4318 100.653 20.3409V31H95.9602V20.1136C95.9602 19.2576 95.714 18.5758 95.2216 18.0682C94.7367 17.5606 94.0966 17.3068 93.3011 17.3068C92.7633 17.3068 92.2784 17.4432 91.8466 17.7159C91.4223 17.9811 91.0852 18.3561 90.8352 18.8409C90.5852 19.3182 90.4602 19.8788 90.4602 20.5227V31H85.6193ZM114.807 37.5455V13.5455H119.58V16.4773H119.795C120.008 16.0076 120.314 15.5303 120.716 15.0455C121.125 14.553 121.655 14.1439 122.307 13.8182C122.966 13.4848 123.784 13.3182 124.761 13.3182C126.034 13.3182 127.208 13.6515 128.284 14.3182C129.36 14.9773 130.22 15.9735 130.864 17.3068C131.508 18.6326 131.83 20.2955 131.83 22.2955C131.83 24.2424 131.515 25.8864 130.886 27.2273C130.265 28.5606 129.417 29.572 128.341 30.2614C127.273 30.9432 126.076 31.2841 124.75 31.2841C123.811 31.2841 123.011 31.1288 122.352 30.8182C121.701 30.5076 121.167 30.1174 120.75 29.6477C120.333 29.1705 120.015 28.6894 119.795 28.2045H119.648V37.5455H114.807ZM119.545 22.2727C119.545 23.3106 119.689 24.2159 119.977 24.9886C120.265 25.7614 120.682 26.3636 121.227 26.7955C121.773 27.2197 122.436 27.4318 123.216 27.4318C124.004 27.4318 124.67 27.2159 125.216 26.7841C125.761 26.3447 126.174 25.7386 126.455 24.9659C126.742 24.1856 126.886 23.2879 126.886 22.2727C126.886 21.2652 126.746 20.3788 126.466 19.6136C126.186 18.8485 125.773 18.25 125.227 17.8182C124.682 17.3864 124.011 17.1705 123.216 17.1705C122.428 17.1705 121.761 17.3788 121.216 17.7955C120.678 18.2121 120.265 18.803 119.977 19.5682C119.689 20.3333 119.545 21.2348 119.545 22.2727ZM139.898 7.72727V31H135.057V7.72727H139.898ZM143.776 31V13.5455H148.616V31H143.776ZM146.207 11.2955C145.488 11.2955 144.87 11.0568 144.355 10.5795C143.848 10.0947 143.594 9.51515 143.594 8.84091C143.594 8.17424 143.848 7.60227 144.355 7.125C144.87 6.64015 145.488 6.39773 146.207 6.39773C146.927 6.39773 147.541 6.64015 148.048 7.125C148.563 7.60227 148.821 8.17424 148.821 8.84091C148.821 9.51515 148.563 10.0947 148.048 10.5795C147.541 11.0568 146.927 11.2955 146.207 11.2955ZM160.381 31.3409C158.593 31.3409 157.055 30.9621 155.767 30.2045C154.487 29.4394 153.502 28.3788 152.812 27.0227C152.131 25.6667 151.79 24.1061 151.79 22.3409C151.79 20.553 152.134 18.9848 152.824 17.6364C153.521 16.2803 154.509 15.2235 155.79 14.4659C157.07 13.7008 158.593 13.3182 160.358 13.3182C161.881 13.3182 163.214 13.5947 164.358 14.1477C165.502 14.7008 166.407 15.4773 167.074 16.4773C167.741 17.4773 168.108 18.6515 168.176 20H163.608C163.479 19.1288 163.138 18.428 162.585 17.8977C162.04 17.3598 161.324 17.0909 160.438 17.0909C159.688 17.0909 159.032 17.2955 158.472 17.7045C157.919 18.1061 157.487 18.6932 157.176 19.4659C156.866 20.2386 156.71 21.1742 156.71 22.2727C156.71 23.3864 156.862 24.3333 157.165 25.1136C157.475 25.8939 157.911 26.4886 158.472 26.8977C159.032 27.3068 159.688 27.5114 160.438 27.5114C160.991 27.5114 161.487 27.3977 161.926 27.1705C162.373 26.9432 162.741 26.6136 163.028 26.1818C163.324 25.7424 163.517 25.2159 163.608 24.6023H168.176C168.1 25.9356 167.737 27.1098 167.085 28.125C166.441 29.1326 165.551 29.9205 164.415 30.4886C163.278 31.0568 161.934 31.3409 160.381 31.3409ZM179.23 31.3409C177.435 31.3409 175.889 30.9773 174.594 30.25C173.306 29.5152 172.313 28.4773 171.616 27.1364C170.92 25.7879 170.571 24.1932 170.571 22.3523C170.571 20.5568 170.92 18.9811 171.616 17.625C172.313 16.2689 173.295 15.2121 174.56 14.4545C175.832 13.697 177.325 13.3182 179.037 13.3182C180.188 13.3182 181.26 13.5038 182.253 13.875C183.253 14.2386 184.124 14.7879 184.866 15.5227C185.616 16.2576 186.2 17.1818 186.616 18.2955C187.033 19.4015 187.241 20.697 187.241 22.1818V23.5114H172.503V20.5114H182.685C182.685 19.8144 182.533 19.197 182.23 18.6591C181.927 18.1212 181.507 17.7008 180.969 17.3977C180.438 17.0871 179.821 16.9318 179.116 16.9318C178.382 16.9318 177.73 17.1023 177.162 17.4432C176.601 17.7765 176.162 18.2273 175.844 18.7955C175.526 19.3561 175.363 19.9811 175.355 20.6705V23.5227C175.355 24.3864 175.514 25.1326 175.832 25.7614C176.158 26.3902 176.616 26.875 177.207 27.2159C177.798 27.5568 178.499 27.7273 179.31 27.7273C179.848 27.7273 180.34 27.6515 180.787 27.5C181.234 27.3485 181.616 27.1212 181.935 26.8182C182.253 26.5152 182.495 26.1439 182.662 25.7045L187.139 26C186.912 27.0758 186.446 28.0152 185.741 28.8182C185.045 29.6136 184.143 30.2348 183.037 30.6818C181.938 31.1212 180.67 31.3409 179.23 31.3409Z" fill="black"/>
<path d="M18.742 9.135C18.7276 8.59789 18.8203 8.06329 19.0149 7.56244C19.2094 7.06159 19.5018 6.60454 19.875 6.218C20.248 5.83322 20.6943 5.52716 21.1876 5.31795C21.6809 5.10874 22.2112 5.00062 22.747 5C23.283 4.99983 23.8135 5.10758 24.307 5.31684C24.8004 5.5261 25.2466 5.83258 25.619 6.218C25.9929 6.60404 26.2858 7.06101 26.4804 7.56198C26.675 8.06294 26.7673 8.59779 26.752 9.135C26.743 9.833 26.552 10.517 26.195 11.116C25.839 11.716 25.332 12.21 24.725 12.549C24.749 12.44 24.635 12.604 24.725 12.549L22.865 14.201C21.3906 15.7702 20.5671 17.8408 20.561 19.994C20.561 22.92 22.272 25.895 24.731 27.451C24.637 27.396 24.767 27.545 24.731 27.451C25.3384 27.791 25.8451 28.2853 26.2 28.884C26.5562 29.4837 26.7483 30.1666 26.757 30.864C26.7717 31.4013 26.679 31.9361 26.4845 32.4371C26.2899 32.9382 25.9974 33.3954 25.624 33.782C25.2512 34.1667 24.8051 34.4726 24.3119 34.6819C23.8188 34.8911 23.2887 34.9992 22.753 35C22.2171 35.0003 21.6865 34.8926 21.1931 34.6833C20.6996 34.474 20.2534 34.1675 19.881 33.782C19.507 33.3961 19.214 32.9391 19.0195 32.4381C18.8249 31.9371 18.7326 31.4022 18.748 30.865C18.7376 28.6929 17.8981 26.6068 16.401 25.033L15.584 24.233C15.258 23.948 14.916 23.682 14.56 23.435C13.939 23.105 13.418 22.609 13.056 22.004C12.7851 21.5511 12.6088 21.0479 12.5378 20.5249C12.4669 20.0018 12.5029 19.4699 12.6434 18.9611C12.784 18.4524 13.0264 17.9775 13.3558 17.5651C13.6853 17.1527 14.0949 16.8115 14.56 16.562C14.527 16.629 14.623 16.526 14.56 16.562C15.8162 15.7679 16.8553 14.6742 17.584 13.379C18.3145 12.0816 18.7124 10.6236 18.742 9.135V9.135ZM14.259 30.877C14.259 30.081 14.024 29.302 13.583 28.64C13.1436 27.9789 12.5179 27.4631 11.785 27.158C11.0529 26.8532 10.2466 26.7734 9.46895 26.9289C8.69131 27.0844 7.97764 27.4681 7.41905 28.031C6.85875 28.5955 6.47743 29.3127 6.32286 30.0929C6.16828 30.8731 6.24731 31.6815 6.55004 32.417C6.85275 33.1516 7.36638 33.7801 8.02604 34.223C8.79617 34.7397 9.72212 34.9723 10.645 34.8809C11.5679 34.7895 12.4302 34.3798 13.084 33.722C13.836 32.966 14.2584 31.9433 14.259 30.877V30.877ZM10.252 13.16C11.044 13.16 11.819 12.924 12.478 12.482C13.1377 12.0391 13.6513 11.4106 13.954 10.676C14.257 9.9404 14.3361 9.13175 14.1816 8.35136C14.027 7.57098 13.6455 6.85357 13.085 6.289C12.5265 5.72607 11.8128 5.34237 11.0351 5.18688C10.2575 5.03139 9.45115 5.11115 8.71905 5.416C7.9856 5.72152 7.35945 6.23803 6.92005 6.9C6.40529 7.67506 6.17391 8.60408 6.26501 9.53004C6.35611 10.456 6.76411 11.3221 7.42005 11.982C7.79121 12.3554 8.23244 12.6518 8.71842 12.8543C9.2044 13.0568 9.72557 13.1614 10.252 13.162L10.252 13.16ZM4.51798e-05 20.006C4.51102e-05 20.802 0.235044 21.58 0.675044 22.242C1.11433 22.9034 1.7401 23.4196 2.47304 23.725C3.20528 24.0301 4.01182 24.1099 4.78967 23.9544C5.56752 23.7989 6.28137 23.4151 6.84005 22.852C7.40054 22.2874 7.78197 21.57 7.93656 20.7896C8.09114 20.0092 8.012 19.2006 7.70904 18.465C7.40634 17.7304 6.89271 17.1019 6.23305 16.659C5.57481 16.217 4.7999 15.981 4.00705 15.981C3.48059 15.9818 2.95947 16.0864 2.47351 16.2889C1.98756 16.4914 1.54631 16.7877 1.17504 17.161C0.423055 17.9174 0.000678722 18.9404 4.51797e-05 20.007L4.51798e-05 20.006Z" fill="#4669E5"/>
<path d="M28.993 24.031C29.786 24.031 30.56 23.795 31.219 23.353C31.8788 22.9098 32.3924 22.281 32.695 21.546C32.9977 20.8105 33.0768 20.0021 32.9222 19.2219C32.7676 18.4417 32.3863 17.7245 31.826 17.16C31.2666 16.5983 30.553 16.2155 29.7757 16.0601C28.9983 15.9047 28.1924 15.9836 27.46 16.287C26.7271 16.5925 26.1013 17.1086 25.662 17.77C25.1476 18.5448 24.9164 19.4735 25.0075 20.399C25.0986 21.3246 25.5064 22.1903 26.162 22.85C26.5331 23.2233 26.9742 23.5197 27.4599 23.7223C27.9457 23.925 28.4667 24.0299 28.993 24.031V24.031Z" fill="#4669E5"/>
</svg>
